<svg xmlns="http://www.w3.org/2000/svg" xmlns:xlink="http://www.w3.org/1999/xlink" width="1024" height="1024" viewBox="0 0 1024 1024" fill="none"><path d="M80.7374 168.805C80.7374 101.657 130.544 47.2233 191.99 47.2233L584.874 47.2233L800.932 47.2233L833.716 47.2233C895.161 47.2233 944.968 101.657 944.968 168.805L944.968 472.749L944.968 655.118C944.968 722.268 895.161 776.699 833.716 776.699L800.932 776.699L810.012 976.876L584.874 776.699L191.99 776.699C130.544 776.699 80.7374 722.268 80.7374 655.118L80.7374 472.749L80.7374 168.805Z" stroke="rgba(0, 0, 0, 1.00)" stroke-width="40"    fill-rule="evenodd"  fill="#FFFFFF" ></path><path     fill="#000000"  d="M362.393 161.042L307.31 432.356L276.257 432.356L221.175 161.042L252.228 161.042L278.845 302.274C279.584 305.991 280.324 309.707 280.324 309.707C284.021 329.777 287.348 350.033 287.348 350.033C290.675 370.288 292.154 387.013 292.154 387.013L293.263 387.013C295.481 360.625 302.505 322.344 302.505 322.344L306.201 302.274L332.449 161.042L362.393 161.042Z"></path><path     fill="#000000"  d="M415.257 161.042L415.257 432.356L385.313 432.356L385.313 161.042L415.257 161.042ZM393.446 294.469L428.566 294.469C448.898 294.469 459.064 279.231 459.064 279.231C469.231 263.993 469.231 239.835 469.231 239.835C469.231 216.048 459.804 201.925 459.804 201.925C450.377 187.802 430.784 187.802 430.784 187.802L393.446 187.802L393.446 161.042L433.741 161.042C462.576 161.042 481.245 180.369 481.245 180.369C499.914 199.695 499.914 237.976 499.914 237.976C499.914 266.966 489.933 285.549 489.933 285.549C479.951 304.132 464.055 312.68 464.055 312.68C448.159 321.229 430.044 321.229 430.044 321.229L393.446 321.229L393.446 294.469ZM510.635 432.356L478.842 432.356L429.305 303.389L460.358 303.389L510.635 432.356Z"></path><path     fill="#000000"  d="M614.515 436.816C575.699 436.816 553.887 402.808 553.887 402.808C532.076 368.801 532.076 301.159 532.076 301.159C532.076 249.498 545.015 217.163 545.015 217.163C557.954 184.829 578.286 170.706 578.286 170.706C598.619 156.583 621.909 156.583 621.909 156.583C640.393 156.583 654.81 164.387 654.81 164.387L644.829 190.032C633.738 184.085 620.43 184.085 620.43 184.085C603.425 184.085 590.486 196.536 590.486 196.536C577.547 208.987 570.153 234.446 570.153 234.446C562.76 259.905 562.76 297.814 562.76 297.814C562.76 353.935 577.732 381.624 577.732 381.624C592.704 409.313 617.472 409.313 617.472 409.313C632.26 409.313 643.72 401.136 643.72 401.136L653.331 426.409C638.175 436.816 614.515 436.816 614.515 436.816Z"></path><path     fill="#000000"  d="M772.369 432.356L744.273 350.962L742.055 344.643C739.097 334.98 735.77 325.317 735.77 325.317L734.661 325.317C732.813 332.007 728.746 342.413 728.746 342.413C728.377 344.272 725.789 350.962 725.789 350.962L696.954 432.356L665.531 432.356L717.286 296.699L667.379 161.042L699.542 161.042L726.898 239.835C728.377 243.551 728.746 245.41 728.746 245.41C733.552 257.675 736.14 267.709 736.14 267.709L737.249 267.709C739.097 259.905 742.794 250.241 742.794 250.241C743.903 248.011 746.491 239.835 746.491 239.835L773.108 161.042L803.791 161.042L753.515 299.672L804.531 432.356L772.369 432.356Z"></path><path d="M192.746 511.795C192.746 492.005 207.427 475.961 225.536 475.961L799.033 475.961C817.142 475.961 831.822 492.005 831.822 511.795L831.822 655.118C831.822 674.908 817.142 690.951 799.033 690.951L225.536 690.951C207.427 690.951 192.746 674.908 192.746 655.118L192.746 511.795Z" fill-rule="evenodd"  fill="#000000" ></path><path     fill="#FFFFFF"  d="M422.011 526C435.441 526 445.104 530.302 445.104 530.302C454.767 534.604 459.927 542.439 459.927 542.439C465.086 550.275 465.086 560.569 465.086 560.569C465.086 572.245 459.435 580.772 459.435 580.772C453.785 589.299 443.548 593.832 443.548 593.832C433.312 598.364 420.046 598.364 420.046 598.364L355.353 598.364L355.353 586.226L418.408 586.226C433.312 586.226 441.337 579.543 441.337 579.543C449.363 572.86 449.363 561.337 449.363 561.337C449.363 550.121 441.747 544.283 441.747 544.283C434.131 538.445 419.555 538.445 419.555 538.445L355.353 538.445L355.353 526L422.011 526ZM362.559 526L362.559 638.156L347 638.156L347 526L362.559 526Z"></path><path     fill="#FFFFFF"  d="M548.941 570.248C541.08 567.79 532.235 567.79 532.235 567.79C522.736 567.79 514.957 571.4 514.957 571.4C507.177 575.011 502.427 582.309 502.427 582.309C497.678 589.606 497.678 600.208 497.678 600.208L493.583 599.593L492.601 576.701L496.04 577.93C500.298 567.329 510.698 561.106 510.698 561.106C521.098 554.884 534.037 554.884 534.037 554.884C545.174 554.884 552.217 557.957 552.217 557.957L548.941 570.248ZM482.938 556.728L496.368 556.728L497.023 578.237L497.842 578.237L497.842 638.156L482.938 638.156L482.938 556.728Z"></path><path     fill="#FFFFFF"  d="M620.022 565.946C606.592 565.946 596.929 569.864 596.929 569.864C587.266 573.782 582.188 580.849 582.188 580.849C577.111 587.916 577.111 597.288 577.111 597.288C577.111 606.66 582.188 613.728 582.188 613.728C587.266 620.795 597.011 624.79 597.011 624.79C606.755 628.784 620.022 628.784 620.022 628.784C633.288 628.784 642.951 624.79 642.951 624.79C652.614 620.795 657.691 613.728 657.691 613.728C662.768 606.66 662.768 597.288 662.768 597.288C662.768 587.916 657.691 580.849 657.691 580.849C652.614 573.782 643.033 569.864 643.033 569.864C633.452 565.946 620.022 565.946 620.022 565.946ZM620.022 554.884C637.546 554.884 650.567 559.877 650.567 559.877C663.587 564.871 670.794 574.473 670.794 574.473C678 584.076 678 597.288 678 597.288C678 610.501 670.794 620.181 670.794 620.181C663.587 629.86 650.485 634.93 650.485 634.93C637.382 640 620.022 640 620.022 640C602.497 640 589.313 634.93 589.313 634.93C576.129 629.86 569.004 620.181 569.004 620.181C561.88 610.501 561.88 597.288 561.88 597.288C561.88 584.076 569.168 574.473 569.168 574.473C576.456 564.871 589.559 559.877 589.559 559.877C602.661 554.884 620.022 554.884 620.022 554.884Z"></path></svg>